# xmcd CD database file
#
# Track frame offsets:
#	150
#	25855
#	51805
#	82779
#	105775
#	128052
#	149782
#	172335
#	195772
#	221255
#	250850
#
# Disc length: 3824 seconds
#
# Revision: 0
# Processed by: cddbd v1.5PL3 Copyright (c) Steve Scherf et al.
# Submitted via: CDex 1.51
#
DISCID=8b0eee0b
DTITLE=David Carr Jr. - In Too Deep (Sweet Disc 1)
DYEAR=2001
DGENRE=Jazz
TTITLE0=When She Dances
TTITLE1=About The First Time
TTITLE2=Imagination
TTITLE3=Song For The Children
TTITLE4=A Wish
TTITLE5=Just Say Goodbye
TTITLE6=Midnight Conversation
TTITLE7=In The Eyes of Luv
TTITLE8=Morning After
TTITLE9=For Grover
TTITLE10=Sounds of Innosense
EXTD=YEAR: 2001
EXTT0=
EXTT1=
EXTT2=
EXTT3=
EXTT4=
EXTT5=
EXTT6=
EXTT7=
EXTT8=
EXTT9=
EXTT10=
PLAYORDER=
